<svg width="18" height="20" viewBox="0 0 18 20" fill="none" xmlns="http://www.w3.org/2000/svg">
<path d="M4 6.66667V4.7619C4 3.49897 4.52678 2.28776 5.46447 1.39473C6.40215 0.501699 7.67392 0 9 0C10.3261 0 11.5979 0.501699 12.5355 1.39473C13.4732 2.28776 14 3.49897 14 4.7619V6.66667H17C17.2652 6.66667 17.5196 6.76701 17.7071 6.94561C17.8946 7.12422 18 7.36646 18 7.61905V19.0476C18 19.3002 17.8946 19.5424 17.7071 19.7211C17.5196 19.8997 17.2652 20 17 20H1C0.734784 20 0.48043 19.8997 0.292893 19.7211C0.105357 19.5424 0 19.3002 0 19.0476V7.61905C0 7.36646 0.105357 7.12422 0.292893 6.94561C0.48043 6.76701 0.734784 6.66667 1 6.66667H4ZM4 8.57143H2V18.0952H16V8.57143H14V10.4762H12V8.57143H6V10.4762H4V8.57143ZM6 6.66667H12V4.7619C12 4.00414 11.6839 3.27742 11.1213 2.7416C10.5587 2.20578 9.79565 1.90476 9 1.90476C8.20435 1.90476 7.44129 2.20578 6.87868 2.7416C6.31607 3.27742 6 4.00414 6 4.7619V6.66667Z" fill="white"/>
</svg>
