<svg width="25" height="25" viewBox="0 0 25 25" fill="none" xmlns="http://www.w3.org/2000/svg">
<path d="M24.9983 12.5005C24.9983 18.8137 20.3187 24.0331 14.2394 24.88C13.671 24.9589 13.0895 25 12.4991 25C11.8177 25 11.1486 24.9457 10.497 24.8406C4.54562 23.8824 0 18.7218 0 12.5005C0 5.59682 5.59663 0 12.5 0C19.4034 0 25 5.59682 25 12.5005H24.9983Z" fill="#E74848"/>
<path d="M14.2395 10.0375V12.7606H17.608L17.0746 16.4288H14.2395V24.8801C13.671 24.9589 13.0895 25.0001 12.4992 25.0001C11.8178 25.0001 11.1486 24.9458 10.497 24.8406V16.4288H7.39038V12.7606H10.497V9.42879C10.497 7.36173 12.1725 5.6853 14.2403 5.6853V5.68706C14.2465 5.68706 14.2517 5.6853 14.2579 5.6853H17.6088V8.85772H15.4192C14.7685 8.85772 14.2403 9.38587 14.2403 10.0366L14.2395 10.0375Z" fill="white"/>
</svg>
