<svg width="25" height="25" viewBox="0 0 25 25" fill="none" xmlns="http://www.w3.org/2000/svg">
<path d="M12.5285 0H12.4716C5.58371 0 0 5.58371 0 12.4716V12.5285C0 19.4163 5.58371 25 12.4716 25H12.5285C19.4163 25 25 19.4163 25 12.5285V12.4716C25 5.58371 19.4163 0 12.5285 0Z" fill="#E74848"/>
<path d="M16.3685 5.08618H8.63282C6.49569 5.08618 4.75708 6.82479 4.75708 8.96192V16.039C4.75708 18.1761 6.49569 19.9147 8.63282 19.9147H16.3685C18.5057 19.9147 20.2443 18.1761 20.2443 16.039V8.96192C20.2443 6.82479 18.5057 5.08618 16.3685 5.08618ZM6.12432 8.96192C6.12432 7.57892 7.24981 6.45342 8.63282 6.45342H16.3685C17.7515 6.45342 18.877 7.57892 18.877 8.96192V16.039C18.877 17.422 17.7515 18.5475 16.3685 18.5475H8.63282C7.24981 18.5475 6.12432 17.422 6.12432 16.039V8.96192Z" fill="white"/>
<path d="M12.5011 16.1045C14.4884 16.1045 16.1062 14.4876 16.1062 12.4994C16.1062 10.5111 14.4893 8.89429 12.5011 8.89429C10.5129 8.89429 8.896 10.5111 8.896 12.4994C8.896 14.4876 10.5129 16.1045 12.5011 16.1045ZM12.5011 10.2624C13.7352 10.2624 14.7389 11.2661 14.7389 12.5003C14.7389 13.7344 13.7352 14.7381 12.5011 14.7381C11.267 14.7381 10.2632 13.7344 10.2632 12.5003C10.2632 11.2661 11.267 10.2624 12.5011 10.2624Z" fill="white"/>
<path d="M16.4396 9.47687C16.9748 9.47687 17.4109 9.04156 17.4109 8.50552C17.4109 7.96949 16.9756 7.53418 16.4396 7.53418C15.9036 7.53418 15.4683 7.96949 15.4683 8.50552C15.4683 9.04156 15.9036 9.47687 16.4396 9.47687Z" fill="white"/>
</svg>
