<svg width="40" height="40" viewBox="0 0 40 40" fill="none" xmlns="http://www.w3.org/2000/svg">
<path d="M39.9972 20.0007C39.9972 30.102 32.5099 38.4529 22.7831 39.8081C21.8736 39.9342 20.9431 40.0001 19.9986 40.0001C18.9084 40.0001 17.8377 39.9132 16.7951 39.745C7.27299 38.2119 0 29.9548 0 20.0007C0 8.95492 8.95461 0 20 0C31.0454 0 40.0001 8.95492 40.0001 20.0007H39.9972Z" fill="#E74848"/>
<path d="M14.9399 13C14.9397 13.5305 14.7287 14.0391 14.3534 14.4139C13.9782 14.7888 13.4694 14.9993 12.9389 14.999C12.4085 14.9988 11.8999 14.7878 11.525 14.4125C11.1501 14.0373 10.9397 13.5285 10.9399 12.998C10.9402 12.4676 11.1512 11.959 11.5264 11.5841C11.9017 11.2092 12.4105 10.9988 12.9409 10.999C13.4714 10.9993 13.98 11.2103 14.3549 11.5855C14.7297 11.9608 14.9402 12.4696 14.9399 13ZM14.9999 16.48H10.9999V29H14.9999V16.48ZM21.3199 16.48H17.3399V29H21.2799V22.43C21.2799 18.77 26.0499 18.43 26.0499 22.43V29H29.9999V21.07C29.9999 14.9 22.9399 15.13 21.2799 18.16L21.3199 16.48Z" fill="white"/>
</svg>
