<svg width="129" height="26" viewBox="0 0 129 26" fill="none" xmlns="http://www.w3.org/2000/svg">
<g clip-path="url(#clip0_208_259)">
<path d="M36.3229 11.3829L33.46 3.55994H35.0788L37.2584 9.84081L39.4498 3.55994H41.0568L38.1891 11.3829H36.3229Z" fill="white"/>
<path d="M40.5029 11.3829L43.3682 3.55994H45.086L47.9537 11.3829H46.3443L44.2236 5.28952L42.0887 11.3829H40.5029ZM41.7612 9.6041L42.1665 8.4323H46.1723L46.5658 9.6041H41.7612Z" fill="white"/>
<path d="M48.9766 11.3829V3.55994H50.4917L54.111 8.95024V3.55994H55.6261V11.3829H54.111L50.4917 5.9926V11.3829H48.9766Z" fill="white"/>
<path d="M60.7063 11.5165C59.9942 11.5367 59.2905 11.3607 58.6728 11.0079C58.1087 10.6755 57.6543 10.1869 57.365 9.60175C57.0506 8.9434 56.8949 8.22119 56.9102 7.49251C56.8956 6.76388 57.0512 6.04183 57.365 5.38326C57.6504 4.78577 58.1049 4.28406 58.6728 3.9396C59.2868 3.58582 59.9874 3.40816 60.6968 3.42634C61.5349 3.3914 62.3603 3.63916 63.039 4.12943C63.6626 4.62015 64.0679 5.33453 64.1677 6.11915H62.5065C62.426 5.73168 62.2107 5.38482 61.8986 5.13952C61.5449 4.89084 61.1177 4.76709 60.6851 4.78798C60.2673 4.76915 59.8541 4.88023 59.5027 5.10577C59.1514 5.33132 58.8794 5.66013 58.7246 6.0465C58.5373 6.50196 58.4474 6.99122 58.4607 7.48313C58.4487 7.97266 58.5386 8.45936 58.7246 8.91273C58.8781 9.29336 59.1422 9.61977 59.4833 9.85018C59.8428 10.0741 60.2611 10.1866 60.6851 10.1736C61.1146 10.1943 61.5396 10.0786 61.8986 9.84314C62.208 9.62075 62.4244 9.29293 62.5065 8.92211H64.1677C64.057 9.6817 63.6519 10.3681 63.039 10.8345C62.3585 11.3118 61.5383 11.5516 60.7063 11.5165Z" fill="white"/>
<path d="M64.8745 11.3829L67.7398 3.55994H69.4599L72.3252 11.3829H70.7182L68.5975 5.28952L66.4603 11.3829H64.8745ZM66.1328 9.6041L66.5381 8.4323H70.5439L70.935 9.6041H66.1328Z" fill="white"/>
<path d="M73.3481 11.3829V3.55994H74.8656L78.4826 8.95024V3.55994H80.0001V11.3829H78.4826L74.8656 5.9926V11.3829H73.3481Z" fill="white"/>
<path d="M83.3811 11.383V4.78337H81.0884V3.5647H87.1842V4.78337H84.8986V11.383H83.3811Z" fill="white"/>
<path d="M94.3689 11.5166C93.6859 11.531 93.012 11.3591 92.4202 11.0197C91.8607 10.6846 91.41 10.1965 91.1219 9.61354C90.8037 8.96131 90.6462 8.24312 90.6624 7.51835C90.6452 6.78091 90.8068 6.05019 91.1336 5.38802C91.4403 4.78785 91.9117 4.28645 92.4932 3.94201C93.1383 3.57685 93.872 3.39523 94.6139 3.41704C95.4361 3.38537 96.2466 3.61793 96.9255 4.08028C97.5348 4.52322 97.9551 5.17708 98.1037 5.91298H96.4095C96.3022 5.57812 96.0793 5.29175 95.7803 5.10444C95.4252 4.89301 95.0157 4.78954 94.6022 4.8068C94.148 4.79555 93.7 4.91344 93.3109 5.14662C92.9525 5.37279 92.669 5.6988 92.4956 6.08407C92.2982 6.5386 92.2025 7.03041 92.2152 7.52539C92.2011 8.02001 92.2951 8.51179 92.4909 8.96671C92.6575 9.34066 92.9355 9.65478 93.2873 9.86665C93.662 10.0774 94.087 10.1835 94.5173 10.1737C95.2054 10.1737 95.7277 9.9893 96.0843 9.62057C96.4517 9.22605 96.675 8.72001 96.7182 8.18394H94.786V7.05901H98.2592V11.383H96.8454L96.7229 10.3893C96.5649 10.6256 96.3691 10.8346 96.1432 11.008C95.9133 11.1813 95.6528 11.3101 95.375 11.3877C95.0476 11.4783 94.7087 11.5217 94.3689 11.5166Z" fill="white"/>
<path d="M99.6519 11.3829V3.55991H102.595C103.137 3.54108 103.675 3.652 104.164 3.88333C104.552 4.07543 104.874 4.37708 105.09 4.75047C105.29 5.11497 105.395 5.52333 105.395 5.93838C105.395 6.35343 105.291 6.76199 105.093 7.12689C104.879 7.50195 104.559 7.80542 104.171 7.99871C103.673 8.23622 103.124 8.34886 102.571 8.32682H101.158V11.3829H99.6519ZM101.169 7.22532H102.501C102.684 7.24059 102.868 7.21899 103.043 7.16181C103.217 7.10463 103.378 7.01304 103.516 6.89253C103.627 6.77411 103.712 6.63499 103.768 6.48329C103.824 6.3316 103.849 6.17036 103.841 6.00899C103.85 5.85056 103.827 5.69201 103.772 5.54295C103.717 5.3939 103.633 5.25744 103.523 5.14185C103.238 4.90625 102.87 4.79177 102.501 4.82312H101.176L101.169 7.22532ZM103.731 11.3829L102.112 7.94012H103.761L105.47 11.3829H103.731Z" fill="white"/>
<path d="M110.359 11.5165C109.656 11.5305 108.963 11.353 108.354 11.0032C107.772 10.6634 107.296 10.1703 106.978 9.57833C106.633 8.92896 106.462 8.20298 106.478 7.46908C106.462 6.73518 106.633 6.0092 106.978 5.35983C107.294 4.76851 107.769 4.27547 108.349 3.93492C108.958 3.58516 109.651 3.40767 110.354 3.42167C111.07 3.40817 111.776 3.58712 112.397 3.93961C112.979 4.27697 113.454 4.77087 113.766 5.36452C114.103 6.01629 114.271 6.74114 114.256 7.47377C114.271 8.2064 114.103 8.93124 113.766 9.58302C113.453 10.1749 112.979 10.6672 112.397 11.0032C111.777 11.3533 111.072 11.5306 110.359 11.5165ZM110.359 10.1642C110.8 10.1766 111.236 10.0619 111.613 9.83378C111.968 9.60657 112.249 9.28066 112.421 8.89634C112.622 8.44691 112.72 7.95858 112.708 7.46674C112.721 6.97253 112.623 6.48166 112.421 6.0301C112.248 5.65123 111.967 5.33106 111.613 5.10907C111.235 4.8836 110.8 4.77055 110.359 4.7833C109.929 4.77357 109.506 4.88662 109.138 5.10907C108.784 5.33212 108.502 5.65186 108.326 6.0301C108.119 6.48056 108.019 6.97197 108.033 7.46674C108.02 7.95914 108.12 8.448 108.326 8.89634C108.5 9.28004 108.783 9.60551 109.138 9.83378C109.504 10.0621 109.928 10.1802 110.359 10.1736V10.1642Z" fill="white"/>
<path d="M118.585 11.5165C118.04 11.524 117.502 11.4052 117.011 11.1696C116.542 10.9413 116.151 10.5801 115.887 10.1314C115.591 9.59033 115.448 8.97977 115.472 8.36434V3.55994H116.99V8.37605C116.98 8.71236 117.046 9.04658 117.185 9.35334C117.304 9.60362 117.501 9.80912 117.746 9.93924C118.021 10.0643 118.32 10.129 118.623 10.129C118.925 10.129 119.224 10.0643 119.499 9.93924C119.746 9.80978 119.942 9.60296 120.058 9.351C120.194 9.0435 120.259 8.70956 120.249 8.37371V3.55994H121.764V8.36434C121.789 8.98131 121.642 9.59315 121.337 10.1314C121.064 10.5826 120.663 10.9437 120.185 11.1696C119.685 11.4051 119.138 11.5237 118.585 11.5165Z" fill="white"/>
<path d="M123.236 11.383V3.56001H126.158C126.708 3.54014 127.255 3.65101 127.753 3.88343C128.148 4.07412 128.476 4.37772 128.696 4.75525C128.906 5.13886 129.012 5.57005 129.005 6.00674C129.007 6.42289 128.903 6.83276 128.701 7.19729C128.487 7.57847 128.168 7.89078 127.782 8.09724C127.281 8.34895 126.723 8.4684 126.163 8.44409H124.749V11.383H123.236ZM124.754 7.22541H126.064C126.556 7.22541 126.912 7.11292 127.124 6.89028C127.346 6.6459 127.461 6.32389 127.445 5.99502C127.455 5.83344 127.431 5.67155 127.376 5.51923C127.321 5.36691 127.235 5.22737 127.124 5.10913C126.912 4.89587 126.556 4.78806 126.064 4.78806H124.737L124.754 7.22541Z" fill="white"/>
<path d="M25.6417 10.9305C24.6136 13.6434 23.0036 16.101 20.9238 18.1323C18.844 20.1637 16.3443 21.72 13.5984 22.6931C10.8523 21.72 8.35222 20.1637 6.27203 18.1324C4.19184 16.1011 2.58145 13.6435 1.55283 10.9305L0 12.475V12.4867C1.1159 15.5987 2.91336 18.4251 5.26232 20.7614C7.61129 23.0976 10.453 24.8854 13.5819 25.9953H13.5937C16.7271 24.8857 19.5728 23.0964 21.9245 20.757C24.2762 18.4176 26.0747 15.5869 27.1898 12.4703L25.6417 10.9305Z" fill="#E74848"/>
<path d="M20.0288 15.6671C20.2362 15.4515 20.4365 15.2265 20.632 14.9991C20.427 15.2335 20.2267 15.4515 20.0288 15.6671Z" fill="white"/>
<path d="M20.6226 14.9991C20.8158 14.7647 21.0043 14.5304 21.1857 14.296C21.0043 14.5304 20.8181 14.7647 20.6226 14.9991Z" fill="white"/>
<path d="M23.5636 9.91581C23.2571 10.7818 22.8763 11.62 22.4255 12.4211C22.3524 12.5524 22.277 12.6836 22.1899 12.8125C21.883 13.325 21.5479 13.8203 21.1861 14.296C21.0046 14.5304 20.8161 14.7647 20.6229 14.9991C20.4273 15.2335 20.227 15.4514 20.0197 15.667C18.981 16.7601 17.7946 17.7042 16.4946 18.4723C16.233 18.627 15.9691 18.7723 15.7029 18.9129C15.4342 19.0535 15.1609 19.1848 14.8852 19.3113C14.4658 19.4988 14.0385 19.6699 13.6034 19.8246L13.3889 19.7449L13.1745 19.6652L12.9601 19.5855L12.7245 19.4965L12.5147 19.4051C12.4464 19.377 12.3734 19.3465 12.305 19.3137L12.1047 19.2176L11.8997 19.1215L11.6994 19.0231C11.6311 18.9856 11.5604 18.9528 11.4897 18.9153C11.419 18.8778 11.3601 18.845 11.2942 18.8098L11.0915 18.702L10.8865 18.5848L10.6956 18.4747L10.4812 18.3458L10.3092 18.238L10.1136 18.1114L9.92748 17.9895L9.74368 17.863L9.55753 17.7341L9.36196 17.5911L9.18995 17.4646C9.12397 17.4177 9.0627 17.3661 8.99908 17.3169L8.83178 17.188L8.6527 17.0404L8.48304 16.9021C8.42178 16.8529 8.36287 16.799 8.30396 16.7498L8.14138 16.6092L7.90574 16.4006L7.79971 16.3021C7.58057 16.0982 7.3685 15.885 7.16114 15.6694C7.12344 15.6248 7.08338 15.5827 7.04332 15.5428C7.00326 15.503 6.90666 15.3928 6.83832 15.3085C6.80298 15.271 6.76999 15.2311 6.737 15.1936L6.57206 14.9991L6.44953 14.8514C6.39533 14.7858 6.33878 14.7202 6.28458 14.6522L6.1597 14.4929L6.00653 14.296L5.89107 14.132L5.74498 13.9351L5.62716 13.7664C5.58004 13.7007 5.53291 13.6328 5.48578 13.5625C5.44337 13.5039 5.40567 13.4406 5.36561 13.3797C5.32555 13.3187 5.27843 13.2531 5.23837 13.1875C5.19831 13.1219 5.16297 13.0633 5.12291 13.0023C5.08285 12.9414 5.04044 12.8688 5.00038 12.8031C4.96032 12.7375 4.92969 12.6789 4.89434 12.6203L4.77181 12.4094L4.66578 12.2149C4.62808 12.1446 4.59038 12.079 4.55503 12.011C4.51969 11.943 4.4867 11.8774 4.45371 11.8118C4.42072 11.7462 4.38302 11.6759 4.35003 11.6056C4.31704 11.5352 4.28641 11.4743 4.25578 11.4087L4.1521 11.1931L4.06727 10.9939L3.96359 10.7806C3.93532 10.7126 3.90704 10.64 3.87876 10.5697L3.79158 10.3588C3.76566 10.2861 3.73974 10.2158 3.71146 10.1455C3.68319 10.0752 3.65962 10.0025 3.63135 9.92987V9.91347C4.44891 7.63043 5.76643 5.55667 7.48861 3.84217C9.21079 2.12767 11.2946 0.815307 13.5892 0L14.9465 1.35226C14.4869 1.5153 14.0362 1.70226 13.5963 1.91238C10.2177 3.52291 7.61709 6.39763 6.36234 9.90878C6.40711 10.0306 6.45188 10.1431 6.49901 10.272C7.09055 11.7945 7.99413 13.1779 9.15231 14.3343C10.3105 15.4906 11.6979 16.3946 13.2263 16.9888L13.5916 17.1248L13.6411 17.106C15.2912 16.5155 16.7904 15.5708 18.032 14.3391C19.2737 13.1073 20.2275 11.6188 20.8255 9.97909L20.8467 9.92284C20.3467 8.534 19.6312 7.23158 18.726 6.06292C17.0718 7.00036 15.6245 8.25973 14.4705 9.76582L13.5892 8.0667C14.6438 6.6896 15.9126 5.48864 17.3476 4.5091C17.9504 4.09545 18.5802 3.722 19.2327 3.3912C19.3905 3.53651 19.5484 3.6865 19.7039 3.83883C20.1016 4.23308 20.4783 4.64768 20.8326 5.08094C22.0137 6.52571 22.9374 8.16096 23.5636 9.91581Z" fill="#E74848"/>
<path d="M34.1224 22.296V17.1491H34.74V21.8034H37.137V22.296H34.1224ZM39.43 22.3843C39.0869 22.3843 38.7805 22.3034 38.5109 22.1416C38.2413 21.9799 38.0305 21.7544 37.8786 21.4652C37.7266 21.1711 37.6506 20.8304 37.6506 20.4431C37.6506 20.051 37.7242 19.7103 37.8712 19.4211C38.0232 19.1319 38.2339 18.9064 38.5035 18.7447C38.778 18.5829 39.0918 18.502 39.4447 18.502C39.8074 18.502 40.1162 18.5829 40.3711 18.7447C40.626 18.9064 40.8196 19.1196 40.952 19.3843C41.0892 19.6441 41.1579 19.9309 41.1579 20.2446C41.1579 20.2936 41.1579 20.3451 41.1579 20.399C41.1579 20.4529 41.1554 20.5142 41.1505 20.5828H38.1138V20.1049H40.5476C40.5329 19.7667 40.4202 19.502 40.2094 19.3108C40.0035 19.1196 39.7437 19.0241 39.43 19.0241C39.2241 19.0241 39.0305 19.0731 38.8491 19.1711C38.6678 19.2643 38.5232 19.404 38.4153 19.5902C38.3075 19.7716 38.2536 19.9995 38.2536 20.274V20.4799C38.2536 20.7838 38.3075 21.0387 38.4153 21.2446C38.5281 21.4505 38.6727 21.6049 38.8491 21.7078C39.0305 21.8107 39.2241 21.8622 39.43 21.8622C39.6898 21.8622 39.903 21.8058 40.0697 21.6931C40.2412 21.5755 40.3662 21.4161 40.4447 21.2152H41.0549C40.9912 21.4407 40.8858 21.6416 40.7388 21.8181C40.5917 21.9897 40.4079 22.1269 40.1873 22.2298C39.9716 22.3328 39.7192 22.3843 39.43 22.3843ZM43.1899 22.3843C42.8909 22.3843 42.6409 22.3328 42.4399 22.2298C42.2389 22.122 42.0894 21.9823 41.9914 21.8107C41.8933 21.6343 41.8443 21.4431 41.8443 21.2372C41.8443 20.9872 41.908 20.7765 42.0355 20.6049C42.1678 20.4284 42.3517 20.2961 42.5869 20.2079C42.8271 20.1147 43.109 20.0681 43.4325 20.0681H44.4104C44.4104 19.8378 44.3737 19.6466 44.3001 19.4946C44.2315 19.3378 44.1286 19.2201 43.9913 19.1417C43.859 19.0633 43.6923 19.0241 43.4913 19.0241C43.256 19.0241 43.0526 19.0829 42.881 19.2005C42.7095 19.3182 42.6041 19.4922 42.5649 19.7226H41.9325C41.962 19.4579 42.0502 19.2373 42.1972 19.0608C42.3492 18.8795 42.5404 18.7422 42.7708 18.6491C43.0011 18.551 43.2413 18.502 43.4913 18.502C43.8345 18.502 44.1188 18.5657 44.3442 18.6932C44.5746 18.8157 44.7462 18.9898 44.8589 19.2152C44.9717 19.4358 45.028 19.6981 45.028 20.002V22.296H44.4766L44.4398 21.6416C44.3908 21.7446 44.3271 21.8426 44.2487 21.9357C44.1751 22.024 44.0869 22.1024 43.984 22.171C43.8859 22.2347 43.7707 22.2862 43.6384 22.3254C43.506 22.3646 43.3565 22.3843 43.1899 22.3843ZM43.2854 21.8622C43.457 21.8622 43.6114 21.8279 43.7487 21.7593C43.8908 21.6857 44.0109 21.5877 44.109 21.4652C44.207 21.3377 44.2805 21.198 44.3295 21.0461C44.3835 20.8941 44.4104 20.7348 44.4104 20.5681V20.5461H43.484C43.2438 20.5461 43.0502 20.5755 42.9031 20.6343C42.7561 20.6882 42.6507 20.7667 42.5869 20.8696C42.5232 20.9676 42.4914 21.0804 42.4914 21.2078C42.4914 21.3402 42.5208 21.4554 42.5796 21.5534C42.6433 21.6514 42.734 21.7274 42.8516 21.7813C42.9742 21.8353 43.1188 21.8622 43.2854 21.8622ZM47.6231 22.3843C47.2653 22.3843 46.9491 22.3009 46.6746 22.1343C46.405 21.9627 46.1967 21.7299 46.0497 21.4358C45.9026 21.1416 45.8291 20.8083 45.8291 20.4358C45.8291 20.0632 45.9026 19.7324 46.0497 19.4432C46.1967 19.1491 46.405 18.9187 46.6746 18.752C46.9491 18.5854 47.2678 18.502 47.6305 18.502C47.9295 18.502 48.1918 18.5633 48.4172 18.6858C48.6476 18.8084 48.8265 18.9799 48.954 19.2005V17.0021H49.5716V22.296H49.0128L48.954 21.6857C48.8756 21.8083 48.7751 21.9235 48.6525 22.0313C48.53 22.1343 48.3829 22.22 48.2114 22.2887C48.0447 22.3524 47.8486 22.3843 47.6231 22.3843ZM47.6893 21.8475C47.9344 21.8475 48.1501 21.7887 48.3364 21.671C48.5226 21.5534 48.6672 21.3916 48.7702 21.1858C48.878 20.975 48.9319 20.7274 48.9319 20.4431C48.9319 20.1637 48.878 19.9186 48.7702 19.7079C48.6672 19.4971 48.5226 19.3329 48.3364 19.2152C48.1501 19.0976 47.9344 19.0388 47.6893 19.0388C47.454 19.0388 47.2408 19.0976 47.0496 19.2152C46.8634 19.3329 46.7188 19.4971 46.6158 19.7079C46.5129 19.9186 46.4614 20.1637 46.4614 20.4431C46.4614 20.7274 46.5129 20.975 46.6158 21.1858C46.7188 21.3916 46.8634 21.5534 47.0496 21.671C47.2408 21.7887 47.454 21.8475 47.6893 21.8475ZM50.6521 22.296V18.5903H51.2697V22.296H50.6521ZM50.9609 17.8035C50.8384 17.8035 50.7354 17.7643 50.6521 17.6859C50.5737 17.6025 50.5345 17.4996 50.5345 17.3771C50.5345 17.2545 50.5737 17.1565 50.6521 17.0829C50.7354 17.0045 50.8384 16.9653 50.9609 16.9653C51.0786 16.9653 51.1791 17.0045 51.2624 17.0829C51.3457 17.1565 51.3874 17.2545 51.3874 17.3771C51.3874 17.4996 51.3457 17.6025 51.2624 17.6859C51.1791 17.7643 51.0786 17.8035 50.9609 17.8035ZM52.3597 22.296V18.5903H52.9185L52.9479 19.2373C53.0655 19.0069 53.2322 18.828 53.4479 18.7005C53.6685 18.5682 53.9184 18.502 54.1979 18.502C54.4871 18.502 54.737 18.5608 54.9478 18.6785C55.1586 18.7912 55.3228 18.9652 55.4405 19.2005C55.5581 19.4309 55.6169 19.725 55.6169 20.0829V22.296H54.9993V20.149C54.9993 19.7765 54.916 19.4971 54.7493 19.3108C54.5875 19.1246 54.3572 19.0314 54.0581 19.0314C53.8523 19.0314 53.6685 19.0829 53.5067 19.1858C53.3449 19.2839 53.215 19.4285 53.117 19.6196C53.0239 19.8059 52.9773 20.0387 52.9773 20.3181V22.296H52.3597ZM58.0449 24.0018C57.7116 24.0018 57.415 23.9577 57.1552 23.8695C56.9004 23.7862 56.7018 23.6563 56.5597 23.4798C56.4175 23.3033 56.3465 23.0852 56.3465 22.8254C56.3465 22.7127 56.3685 22.5926 56.4126 22.4651C56.4616 22.3377 56.5425 22.2127 56.6553 22.0901C56.7729 21.9676 56.9371 21.8573 57.1479 21.7593L57.5744 22.0093C57.3146 22.1171 57.1454 22.2396 57.067 22.3769C56.9886 22.5191 56.9494 22.649 56.9494 22.7666C56.9494 22.9284 56.9959 23.0632 57.0891 23.171C57.1822 23.2788 57.3121 23.3597 57.4788 23.4136C57.6454 23.4676 57.8341 23.4945 58.0449 23.4945C58.2557 23.4945 58.4371 23.4627 58.589 23.3989C58.741 23.3401 58.8586 23.2568 58.942 23.1489C59.0253 23.046 59.067 22.921 59.067 22.7739C59.067 22.6024 59.0032 22.4578 58.8758 22.3401C58.7483 22.2274 58.5057 22.1612 58.1479 22.1416C57.8587 22.122 57.616 22.095 57.4199 22.0607C57.2239 22.0264 57.0621 21.9872 56.9347 21.9431C56.8072 21.8941 56.6994 21.8402 56.6111 21.7813C56.5278 21.7225 56.4518 21.6612 56.3832 21.5975V21.4284L57.0964 20.7225L57.6332 20.9137L56.8979 21.5755L56.9935 21.3181C57.0474 21.3573 57.0989 21.3941 57.1479 21.4284C57.1969 21.4627 57.2631 21.4921 57.3464 21.5166C57.4297 21.5411 57.5449 21.5632 57.692 21.5828C57.844 21.6024 58.0425 21.622 58.2876 21.6416C58.6258 21.6661 58.8954 21.725 59.0964 21.8181C59.3022 21.9112 59.4493 22.0362 59.5375 22.1931C59.6307 22.3499 59.6772 22.5362 59.6772 22.7519C59.6772 22.9627 59.6184 23.1612 59.5008 23.3475C59.388 23.5386 59.2116 23.6955 58.9714 23.818C58.7312 23.9406 58.4224 24.0018 58.0449 24.0018ZM58.0376 21.1343C57.7288 21.1343 57.4641 21.0755 57.2435 20.9578C57.0278 20.8402 56.8636 20.6833 56.7508 20.4873C56.6381 20.2863 56.5817 20.0632 56.5817 19.8182C56.5817 19.5731 56.6381 19.3525 56.7508 19.1564C56.8685 18.9603 57.0352 18.8035 57.2508 18.6858C57.4665 18.5633 57.7288 18.502 58.0376 18.502C58.3464 18.502 58.6086 18.5633 58.8243 18.6858C59.04 18.8035 59.2042 18.9603 59.3169 19.1564C59.4297 19.3525 59.4861 19.5731 59.4861 19.8182C59.4861 20.0632 59.4297 20.2863 59.3169 20.4873C59.2042 20.6833 59.04 20.8402 58.8243 20.9578C58.6086 21.0755 58.3464 21.1343 58.0376 21.1343ZM58.0376 20.627C58.3023 20.627 58.5106 20.5583 58.6626 20.4211C58.8145 20.2838 58.8905 20.0829 58.8905 19.8182C58.8905 19.5584 58.8145 19.3598 58.6626 19.2226C58.5106 19.0853 58.3023 19.0167 58.0376 19.0167C57.7778 19.0167 57.567 19.0853 57.4052 19.2226C57.2484 19.3598 57.17 19.5584 57.17 19.8182C57.17 20.0829 57.2484 20.2838 57.4052 20.4211C57.5621 20.5583 57.7729 20.627 58.0376 20.627ZM58.6405 19.1123L58.4567 18.5903H59.9713V19.0535L58.6405 19.1123ZM62.6716 22.296V17.1491H63.3921L65.2156 20.7446L67.0317 17.1491H67.7596V22.296H67.142V18.252L65.4435 21.5755H64.9803L63.2892 18.2667V22.296H62.6716ZM70.0301 22.3843C69.7311 22.3843 69.4811 22.3328 69.2802 22.2298C69.0792 22.122 68.9297 21.9823 68.8316 21.8107C68.7336 21.6343 68.6846 21.4431 68.6846 21.2372C68.6846 20.9872 68.7483 20.7765 68.8758 20.6049C69.0081 20.4284 69.1919 20.2961 69.4272 20.2079C69.6674 20.1147 69.9493 20.0681 70.2728 20.0681H71.2507C71.2507 19.8378 71.2139 19.6466 71.1404 19.4946C71.0718 19.3378 70.9688 19.2201 70.8316 19.1417C70.6992 19.0633 70.5326 19.0241 70.3316 19.0241C70.0963 19.0241 69.8929 19.0829 69.7213 19.2005C69.5498 19.3182 69.4444 19.4922 69.4052 19.7226H68.7728C68.8022 19.4579 68.8905 19.2373 69.0375 19.0608C69.1895 18.8795 69.3806 18.7422 69.611 18.6491C69.8414 18.551 70.0816 18.502 70.3316 18.502C70.6747 18.502 70.959 18.5657 71.1845 18.6932C71.4149 18.8157 71.5865 18.9898 71.6992 19.2152C71.8119 19.4358 71.8683 19.6981 71.8683 20.002V22.296H71.3169L71.2801 21.6416C71.2311 21.7446 71.1674 21.8426 71.0889 21.9357C71.0154 22.024 70.9272 22.1024 70.8242 22.171C70.7262 22.2347 70.611 22.2862 70.4787 22.3254C70.3463 22.3646 70.1968 22.3843 70.0301 22.3843ZM70.1257 21.8622C70.2973 21.8622 70.4517 21.8279 70.5889 21.7593C70.7311 21.6857 70.8512 21.5877 70.9492 21.4652C71.0473 21.3377 71.1208 21.198 71.1698 21.0461C71.2237 20.8941 71.2507 20.7348 71.2507 20.5681V20.5461H70.3242C70.0841 20.5461 69.8904 20.5755 69.7434 20.6343C69.5963 20.6882 69.4909 20.7667 69.4272 20.8696C69.3635 20.9676 69.3316 21.0804 69.3316 21.2078C69.3316 21.3402 69.361 21.4554 69.4199 21.5534C69.4836 21.6514 69.5743 21.7274 69.6919 21.7813C69.8145 21.8353 69.9591 21.8622 70.1257 21.8622ZM72.8238 22.296V18.5903H73.3826L73.4267 19.2961C73.51 19.1295 73.6154 18.9873 73.7429 18.8697C73.8752 18.752 74.0321 18.6613 74.2134 18.5976C74.3997 18.5339 74.6105 18.502 74.8458 18.502V19.1491H74.6178C74.461 19.1491 74.3115 19.1711 74.1693 19.2152C74.0272 19.2544 73.8997 19.3206 73.787 19.4138C73.6791 19.5069 73.5933 19.6343 73.5296 19.7961C73.4708 19.953 73.4414 20.149 73.4414 20.3843V22.296H72.8238ZM77.8245 22.296L76.0598 20.2667L77.6701 18.5903H78.4274L76.5819 20.4873L76.5892 20.0461L78.6112 22.296H77.8245ZM75.5451 22.296V17.0021H76.1628V22.296H75.5451ZM80.6095 22.3843C80.2664 22.3843 79.96 22.3034 79.6904 22.1416C79.4208 21.9799 79.21 21.7544 79.0581 21.4652C78.9061 21.1711 78.8301 20.8304 78.8301 20.4431C78.8301 20.051 78.9037 19.7103 79.0507 19.4211C79.2027 19.1319 79.4134 18.9064 79.683 18.7447C79.9575 18.5829 80.2713 18.502 80.6242 18.502C80.9869 18.502 81.2957 18.5829 81.5506 18.7447C81.8055 18.9064 81.9991 19.1196 82.1315 19.3843C82.2687 19.6441 82.3374 19.9309 82.3374 20.2446C82.3374 20.2936 82.3374 20.3451 82.3374 20.399C82.3374 20.4529 82.3349 20.5142 82.33 20.5828H79.2933V20.1049H81.7271C81.7124 19.7667 81.5996 19.502 81.3889 19.3108C81.183 19.1196 80.9232 19.0241 80.6095 19.0241C80.4036 19.0241 80.21 19.0731 80.0286 19.1711C79.8472 19.2643 79.7026 19.404 79.5948 19.5902C79.487 19.7716 79.433 19.9995 79.433 20.274V20.4799C79.433 20.7838 79.487 21.0387 79.5948 21.2446C79.7075 21.4505 79.8522 21.6049 80.0286 21.7078C80.21 21.8107 80.4036 21.8622 80.6095 21.8622C80.8693 21.8622 81.0825 21.8058 81.2492 21.6931C81.4207 21.5755 81.5457 21.4161 81.6242 21.2152H82.2344C82.1707 21.4407 82.0653 21.6416 81.9183 21.8181C81.7712 21.9897 81.5874 22.1269 81.3668 22.2298C81.1511 22.3328 80.8987 22.3843 80.6095 22.3843ZM84.4973 22.296C84.2767 22.296 84.0855 22.2617 83.9238 22.1931C83.762 22.1245 83.637 22.0093 83.5488 21.8475C83.4655 21.6808 83.4238 21.4578 83.4238 21.1784V19.1123H82.7768V18.5903H83.4238L83.5047 17.6932H84.0414V18.5903H85.1149V19.1123H84.0414V21.1784C84.0414 21.4088 84.088 21.5657 84.1811 21.649C84.2743 21.7274 84.4385 21.7666 84.6738 21.7666H85.0708V22.296H84.4973ZM85.9796 22.296V18.5903H86.5972V22.296H85.9796ZM86.2884 17.8035C86.1659 17.8035 86.0629 17.7643 85.9796 17.6859C85.9012 17.6025 85.862 17.4996 85.862 17.3771C85.862 17.2545 85.9012 17.1565 85.9796 17.0829C86.0629 17.0045 86.1659 16.9653 86.2884 16.9653C86.4061 16.9653 86.5065 17.0045 86.5899 17.0829C86.6732 17.1565 86.7149 17.2545 86.7149 17.3771C86.7149 17.4996 86.6732 17.6025 86.5899 17.6859C86.5065 17.7643 86.4061 17.8035 86.2884 17.8035ZM87.6872 22.296V18.5903H88.246L88.2754 19.2373C88.393 19.0069 88.5597 18.828 88.7754 18.7005C88.9959 18.5682 89.2459 18.502 89.5253 18.502C89.8145 18.502 90.0645 18.5608 90.2753 18.6785C90.4861 18.7912 90.6503 18.9652 90.7679 19.2005C90.8856 19.4309 90.9444 19.725 90.9444 20.0829V22.296H90.3268V20.149C90.3268 19.7765 90.2434 19.4971 90.0768 19.3108C89.915 19.1246 89.6846 19.0314 89.3856 19.0314C89.1798 19.0314 88.9959 19.0829 88.8342 19.1858C88.6724 19.2839 88.5425 19.4285 88.4445 19.6196C88.3514 19.8059 88.3048 20.0387 88.3048 20.3181V22.296H87.6872ZM93.3724 24.0018C93.0391 24.0018 92.7425 23.9577 92.4827 23.8695C92.2278 23.7862 92.0293 23.6563 91.8872 23.4798C91.745 23.3033 91.6739 23.0852 91.6739 22.8254C91.6739 22.7127 91.696 22.5926 91.7401 22.4651C91.7891 22.3377 91.87 22.2127 91.9827 22.0901C92.1004 21.9676 92.2646 21.8573 92.4754 21.7593L92.9018 22.0093C92.642 22.1171 92.4729 22.2396 92.3945 22.3769C92.3161 22.5191 92.2769 22.649 92.2769 22.7666C92.2769 22.9284 92.3234 23.0632 92.4166 23.171C92.5097 23.2788 92.6396 23.3597 92.8063 23.4136C92.9729 23.4676 93.1616 23.4945 93.3724 23.4945C93.5832 23.4945 93.7646 23.4627 93.9165 23.3989C94.0685 23.3401 94.1861 23.2568 94.2694 23.1489C94.3528 23.046 94.3944 22.921 94.3944 22.7739C94.3944 22.6024 94.3307 22.4578 94.2033 22.3401C94.0758 22.2274 93.8332 22.1612 93.4753 22.1416C93.1861 22.122 92.9435 22.095 92.7474 22.0607C92.5514 22.0264 92.3896 21.9872 92.2622 21.9431C92.1347 21.8941 92.0269 21.8402 91.9386 21.7813C91.8553 21.7225 91.7793 21.6612 91.7107 21.5975V21.4284L92.4239 20.7225L92.9607 20.9137L92.2254 21.5755L92.321 21.3181C92.3749 21.3573 92.4264 21.3941 92.4754 21.4284C92.5244 21.4627 92.5906 21.4921 92.6739 21.5166C92.7572 21.5411 92.8724 21.5632 93.0195 21.5828C93.1714 21.6024 93.37 21.622 93.6151 21.6416C93.9533 21.6661 94.2229 21.725 94.4238 21.8181C94.6297 21.9112 94.7768 22.0362 94.865 22.1931C94.9581 22.3499 95.0047 22.5362 95.0047 22.7519C95.0047 22.9627 94.9459 23.1612 94.8282 23.3475C94.7155 23.5386 94.539 23.6955 94.2989 23.818C94.0587 23.9406 93.7499 24.0018 93.3724 24.0018ZM93.3651 21.1343C93.0562 21.1343 92.7915 21.0755 92.571 20.9578C92.3553 20.8402 92.1911 20.6833 92.0783 20.4873C91.9656 20.2863 91.9092 20.0632 91.9092 19.8182C91.9092 19.5731 91.9656 19.3525 92.0783 19.1564C92.196 18.9603 92.3626 18.8035 92.5783 18.6858C92.794 18.5633 93.0562 18.502 93.3651 18.502C93.6739 18.502 93.9361 18.5633 94.1518 18.6858C94.3675 18.8035 94.5317 18.9603 94.6444 19.1564C94.7572 19.3525 94.8135 19.5731 94.8135 19.8182C94.8135 20.0632 94.7572 20.2863 94.6444 20.4873C94.5317 20.6833 94.3675 20.8402 94.1518 20.9578C93.9361 21.0755 93.6739 21.1343 93.3651 21.1343ZM93.3651 20.627C93.6298 20.627 93.8381 20.5583 93.99 20.4211C94.142 20.2838 94.218 20.0829 94.218 19.8182C94.218 19.5584 94.142 19.3598 93.99 19.2226C93.8381 19.0853 93.6298 19.0167 93.3651 19.0167C93.1053 19.0167 92.8945 19.0853 92.7327 19.2226C92.5759 19.3598 92.4974 19.5584 92.4974 19.8182C92.4974 20.0829 92.5759 20.2838 92.7327 20.4211C92.8896 20.5583 93.1004 20.627 93.3651 20.627ZM93.968 19.1123L93.7842 18.5903H95.2988V19.0535L93.968 19.1123ZM99.6387 22.3843C99.2613 22.3843 98.9328 22.3156 98.6534 22.1784C98.374 22.0411 98.1584 21.85 98.0064 21.6049C97.8544 21.3598 97.7785 21.0755 97.7785 20.752H98.4255C98.4255 20.9529 98.4721 21.1392 98.5652 21.3108C98.6583 21.4774 98.7931 21.6122 98.9696 21.7152C99.151 21.8132 99.374 21.8622 99.6387 21.8622C99.8691 21.8622 100.065 21.8254 100.227 21.7519C100.394 21.6735 100.519 21.5681 100.602 21.4358C100.69 21.3034 100.734 21.1539 100.734 20.9872C100.734 20.7863 100.69 20.6245 100.602 20.502C100.519 20.3745 100.403 20.2716 100.256 20.1931C100.109 20.1147 99.9377 20.0461 99.7416 19.9873C99.5505 19.9235 99.3495 19.8549 99.1387 19.7814C98.7319 19.6441 98.4329 19.475 98.2417 19.2741C98.0505 19.0682 97.9549 18.801 97.9549 18.4726C97.9549 18.1932 98.0187 17.9481 98.1461 17.7373C98.2785 17.5266 98.4647 17.3624 98.7049 17.2447C98.95 17.1222 99.2392 17.0609 99.5725 17.0609C99.9009 17.0609 100.185 17.1222 100.425 17.2447C100.671 17.3673 100.862 17.5364 100.999 17.752C101.136 17.9628 101.205 18.2079 101.205 18.4873H100.558C100.558 18.3452 100.521 18.2055 100.448 18.0682C100.374 17.931 100.261 17.8182 100.109 17.73C99.9622 17.6369 99.776 17.5903 99.5505 17.5903C99.3642 17.5854 99.1975 17.6172 99.0505 17.6859C98.9083 17.7496 98.7956 17.8427 98.7123 17.9653C98.6338 18.0878 98.5946 18.2373 98.5946 18.4138C98.5946 18.5804 98.6289 18.7152 98.6976 18.8182C98.7711 18.9211 98.874 19.0094 99.0064 19.0829C99.1436 19.1515 99.3029 19.2152 99.4843 19.2741C99.6657 19.3329 99.8666 19.3991 100.087 19.4726C100.337 19.5559 100.558 19.6588 100.749 19.7814C100.945 19.899 101.097 20.051 101.205 20.2373C101.318 20.4235 101.374 20.6613 101.374 20.9505C101.374 21.1956 101.308 21.4284 101.175 21.649C101.048 21.8647 100.857 22.0411 100.602 22.1784C100.347 22.3156 100.026 22.3843 99.6387 22.3843ZM103.882 22.3843C103.539 22.3843 103.23 22.3058 102.955 22.149C102.681 21.9872 102.465 21.7617 102.308 21.4725C102.151 21.1784 102.073 20.8377 102.073 20.4505C102.073 20.0534 102.151 19.7103 102.308 19.4211C102.47 19.127 102.688 18.9015 102.963 18.7447C103.242 18.5829 103.553 18.502 103.896 18.502C104.249 18.502 104.561 18.5829 104.83 18.7447C105.105 18.9015 105.32 19.127 105.477 19.4211C105.639 19.7103 105.72 20.051 105.72 20.4431C105.72 20.8353 105.639 21.1784 105.477 21.4725C105.316 21.7617 105.097 21.9872 104.823 22.149C104.548 22.3058 104.235 22.3843 103.882 22.3843ZM103.889 21.8549C104.1 21.8549 104.296 21.8034 104.477 21.7005C104.659 21.5926 104.806 21.4333 104.919 21.2225C105.031 21.0117 105.088 20.752 105.088 20.4431C105.088 20.1294 105.031 19.8696 104.919 19.6637C104.811 19.453 104.666 19.2961 104.485 19.1932C104.308 19.0853 104.112 19.0314 103.896 19.0314C103.691 19.0314 103.495 19.0853 103.308 19.1932C103.127 19.2961 102.98 19.453 102.867 19.6637C102.759 19.8696 102.705 20.1294 102.705 20.4431C102.705 20.752 102.759 21.0117 102.867 21.2225C102.98 21.4333 103.124 21.5926 103.301 21.7005C103.482 21.8034 103.678 21.8549 103.889 21.8549ZM106.586 22.296V17.0021H107.204V22.296H106.586ZM109.569 22.3843C109.284 22.3843 109.034 22.3279 108.819 22.2151C108.608 22.1024 108.444 21.9284 108.326 21.6931C108.213 21.4578 108.157 21.1637 108.157 20.8108V18.5903H108.775V20.7446C108.775 21.1122 108.855 21.3892 109.017 21.5755C109.179 21.7617 109.407 21.8549 109.701 21.8549C109.907 21.8549 110.093 21.8058 110.26 21.7078C110.426 21.6049 110.556 21.4603 110.649 21.274C110.747 21.0828 110.796 20.8475 110.796 20.5681V18.5903H111.414V22.296H110.855L110.819 21.649C110.706 21.8794 110.539 22.0607 110.319 22.1931C110.098 22.3205 109.848 22.3843 109.569 22.3843ZM113.894 22.296C113.673 22.296 113.482 22.2617 113.32 22.1931C113.159 22.1245 113.034 22.0093 112.945 21.8475C112.862 21.6808 112.82 21.4578 112.82 21.1784V19.1123H112.173V18.5903H112.82L112.901 17.6932H113.438V18.5903H114.511V19.1123H113.438V21.1784C113.438 21.4088 113.484 21.5657 113.578 21.649C113.671 21.7274 113.835 21.7666 114.07 21.7666H114.467V22.296H113.894ZM115.376 22.296V18.5903H115.994V22.296H115.376ZM115.685 17.8035C115.562 17.8035 115.459 17.7643 115.376 17.6859C115.298 17.6025 115.258 17.4996 115.258 17.3771C115.258 17.2545 115.298 17.1565 115.376 17.0829C115.459 17.0045 115.562 16.9653 115.685 16.9653C115.803 16.9653 115.903 17.0045 115.986 17.0829C116.07 17.1565 116.111 17.2545 116.111 17.3771C116.111 17.4996 116.07 17.6025 115.986 17.6859C115.903 17.7643 115.803 17.8035 115.685 17.8035ZM118.738 22.3843C118.395 22.3843 118.086 22.3058 117.812 22.149C117.537 21.9872 117.321 21.7617 117.165 21.4725C117.008 21.1784 116.929 20.8377 116.929 20.4505C116.929 20.0534 117.008 19.7103 117.165 19.4211C117.326 19.127 117.544 18.9015 117.819 18.7447C118.098 18.5829 118.41 18.502 118.753 18.502C119.106 18.502 119.417 18.5829 119.687 18.7447C119.961 18.9015 120.177 19.127 120.334 19.4211C120.495 19.7103 120.576 20.051 120.576 20.4431C120.576 20.8353 120.495 21.1784 120.334 21.4725C120.172 21.7617 119.954 21.9872 119.679 22.149C119.405 22.3058 119.091 22.3843 118.738 22.3843ZM118.745 21.8549C118.956 21.8549 119.152 21.8034 119.334 21.7005C119.515 21.5926 119.662 21.4333 119.775 21.2225C119.887 21.0117 119.944 20.752 119.944 20.4431C119.944 20.1294 119.887 19.8696 119.775 19.6637C119.667 19.453 119.522 19.2961 119.341 19.1932C119.164 19.0853 118.968 19.0314 118.753 19.0314C118.547 19.0314 118.351 19.0853 118.164 19.1932C117.983 19.2961 117.836 19.453 117.723 19.6637C117.615 19.8696 117.562 20.1294 117.562 20.4431C117.562 20.752 117.615 21.0117 117.723 21.2225C117.836 21.4333 117.981 21.5926 118.157 21.7005C118.339 21.8034 118.535 21.8549 118.745 21.8549ZM121.442 22.296V18.5903H122.001L122.03 19.2373C122.148 19.0069 122.315 18.828 122.53 18.7005C122.751 18.5682 123.001 18.502 123.28 18.502C123.57 18.502 123.82 18.5608 124.03 18.6785C124.241 18.7912 124.405 18.9652 124.523 19.2005C124.641 19.4309 124.699 19.725 124.699 20.0829V22.296H124.082V20.149C124.082 19.7765 123.998 19.4971 123.832 19.3108C123.67 19.1246 123.44 19.0314 123.141 19.0314C122.935 19.0314 122.751 19.0829 122.589 19.1858C122.427 19.2839 122.297 19.4285 122.199 19.6196C122.106 19.8059 122.06 20.0387 122.06 20.3181V22.296H121.442ZM127.061 22.3843C126.757 22.3843 126.49 22.3328 126.26 22.2298C126.029 22.1269 125.846 21.9848 125.708 21.8034C125.576 21.6171 125.495 21.399 125.466 21.149H126.098C126.123 21.2764 126.174 21.3941 126.252 21.5019C126.331 21.6098 126.436 21.698 126.569 21.7666C126.706 21.8303 126.872 21.8622 127.069 21.8622C127.24 21.8622 127.382 21.8377 127.495 21.7887C127.608 21.7348 127.691 21.6637 127.745 21.5755C127.804 21.4872 127.833 21.3916 127.833 21.2887C127.833 21.1367 127.796 21.0216 127.723 20.9431C127.654 20.8647 127.551 20.8034 127.414 20.7593C127.277 20.7103 127.11 20.6686 126.914 20.6343C126.752 20.6049 126.593 20.5657 126.436 20.5167C126.279 20.4676 126.14 20.4039 126.017 20.3255C125.895 20.2422 125.797 20.1417 125.723 20.024C125.654 19.9064 125.62 19.7618 125.62 19.5902C125.62 19.3794 125.674 19.1932 125.782 19.0314C125.895 18.8648 126.051 18.7349 126.252 18.6417C126.453 18.5486 126.689 18.502 126.958 18.502C127.355 18.502 127.676 18.5976 127.921 18.7888C128.167 18.9799 128.311 19.2569 128.355 19.6196H127.745C127.721 19.4334 127.64 19.2888 127.502 19.1858C127.37 19.078 127.186 19.0241 126.951 19.0241C126.721 19.0241 126.544 19.0706 126.422 19.1638C126.304 19.2569 126.245 19.3794 126.245 19.5314C126.245 19.6294 126.277 19.7177 126.341 19.7961C126.409 19.8696 126.51 19.9333 126.642 19.9873C126.774 20.0412 126.934 20.0853 127.12 20.1196C127.365 20.1637 127.588 20.2226 127.789 20.2961C127.99 20.3696 128.152 20.4799 128.274 20.627C128.402 20.7691 128.466 20.9725 128.466 21.2372C128.466 21.4676 128.407 21.6686 128.289 21.8402C128.176 22.0117 128.015 22.1465 127.804 22.2446C127.593 22.3377 127.346 22.3843 127.061 22.3843Z" fill="white" fill-opacity="0.6"/>
</g>
<defs>
<clipPath id="clip0_208_259">
<rect width="129" height="26" fill="white"/>
</clipPath>
</defs>
</svg>
