<svg width="129" height="26" viewBox="0 0 129 26" fill="none" xmlns="http://www.w3.org/2000/svg">
<g clip-path="url(#clip0_208_259)">
<path d="M36.3229 16.9115L33.46 9.0885H35.0788L37.2584 15.3694L39.4498 9.0885H41.0568L38.1891 16.9115H36.3229Z" fill="white"/>
<path d="M40.5029 16.9115L43.3682 9.0885H45.086L47.9537 16.9115H46.3443L44.2236 10.8181L42.0887 16.9115H40.5029ZM41.7612 15.1327L42.1665 13.9609H46.1723L46.5658 15.1327H41.7612Z" fill="white"/>
<path d="M48.9766 16.9115V9.0885H50.4917L54.111 14.4788V9.0885H55.6261V16.9115H54.111L50.4917 11.5212V16.9115H48.9766Z" fill="white"/>
<path d="M60.7063 17.045C59.9942 17.0653 59.2905 16.8893 58.6728 16.5365C58.1087 16.2041 57.6543 15.7154 57.365 15.1303C57.0506 14.472 56.8949 13.7498 56.9102 13.0211C56.8956 12.2924 57.0512 11.5704 57.365 10.9118C57.6504 10.3143 58.1049 9.81262 58.6728 9.46816C59.2868 9.11438 59.9874 8.93673 60.6968 8.95491C61.5349 8.91997 62.3603 9.16773 63.039 9.65799C63.6626 10.1487 64.0679 10.8631 64.1677 11.6477H62.5065C62.426 11.2602 62.2107 10.9134 61.8986 10.6681C61.5449 10.4194 61.1177 10.2957 60.6851 10.3165C60.2673 10.2977 59.8541 10.4088 59.5027 10.6343C59.1514 10.8599 58.8794 11.1887 58.7246 11.5751C58.5373 12.0305 58.4474 12.5198 58.4607 13.0117C58.4487 13.5012 58.5386 13.9879 58.7246 14.4413C58.8781 14.8219 59.1422 15.1483 59.4833 15.3787C59.8428 15.6026 60.2611 15.7152 60.6851 15.7022C61.1146 15.7229 61.5396 15.6071 61.8986 15.3717C62.208 15.1493 62.4244 14.8215 62.5065 14.4507H64.1677C64.057 15.2103 63.6519 15.8966 63.039 16.3631C62.3585 16.8404 61.5383 17.0802 60.7063 17.045Z" fill="white"/>
<path d="M64.8745 16.9115L67.7398 9.0885H69.4599L72.3252 16.9115H70.7182L68.5975 10.8181L66.4603 16.9115H64.8745ZM66.1328 15.1327L66.5381 13.9609H70.5439L70.935 15.1327H66.1328Z" fill="white"/>
<path d="M73.3481 16.9115V9.0885H74.8656L78.4826 14.4788V9.0885H80.0001V16.9115H78.4826L74.8656 11.5212V16.9115H73.3481Z" fill="white"/>
<path d="M83.3811 16.9115V10.3119H81.0884V9.09326H87.1842V10.3119H84.8986V16.9115H83.3811Z" fill="white"/>
<path d="M94.3689 17.0451C93.6859 17.0595 93.012 16.8877 92.4202 16.5483C91.8607 16.2132 91.41 15.725 91.1219 15.1421C90.8037 14.4899 90.6462 13.7717 90.6624 13.0469C90.6452 12.3095 90.8068 11.5788 91.1336 10.9166C91.4403 10.3164 91.9117 9.81502 92.4932 9.47057C93.1383 9.10541 93.872 8.9238 94.6139 8.9456C95.4361 8.91393 96.2466 9.1465 96.9255 9.60885C97.5348 10.0518 97.9551 10.7056 98.1037 11.4415H96.4095C96.3022 11.1067 96.0793 10.8203 95.7803 10.633C95.4252 10.4216 95.0157 10.3181 94.6022 10.3354C94.148 10.3241 93.7 10.442 93.3109 10.6752C92.9525 10.9014 92.669 11.2274 92.4956 11.6126C92.2982 12.0672 92.2025 12.559 92.2152 13.054C92.2011 13.5486 92.2951 14.0404 92.4909 14.4953C92.6575 14.8692 92.9355 15.1833 93.2873 15.3952C93.662 15.606 94.087 15.7121 94.5173 15.7022C95.2054 15.7022 95.7277 15.5179 96.0843 15.1491C96.4517 14.7546 96.675 14.2486 96.7182 13.7125H94.786V12.5876H98.2592V16.9115H96.8454L96.7229 15.9178C96.5649 16.1541 96.3691 16.3631 96.1432 16.5366C95.9133 16.7099 95.6528 16.8386 95.375 16.9162C95.0476 17.0069 94.7087 17.0503 94.3689 17.0451Z" fill="white"/>
<path d="M99.6519 16.9114V9.08848H102.595C103.137 9.06965 103.675 9.18057 104.164 9.4119C104.552 9.604 104.874 9.90564 105.09 10.279C105.29 10.6435 105.395 11.0519 105.395 11.4669C105.395 11.882 105.291 12.2906 105.093 12.6555C104.879 13.0305 104.559 13.334 104.171 13.5273C103.673 13.7648 103.124 13.8774 102.571 13.8554H101.158V16.9114H99.6519ZM101.169 12.7539H102.501C102.684 12.7692 102.868 12.7476 103.043 12.6904C103.217 12.6332 103.378 12.5416 103.516 12.4211C103.627 12.3027 103.712 12.1636 103.768 12.0119C103.824 11.8602 103.849 11.6989 103.841 11.5376C103.85 11.3791 103.827 11.2206 103.772 11.0715C103.717 10.9225 103.633 10.786 103.523 10.6704C103.238 10.4348 102.87 10.3203 102.501 10.3517H101.176L101.169 12.7539ZM103.731 16.9114L102.112 13.4687H103.761L105.47 16.9114H103.731Z" fill="white"/>
<path d="M110.359 17.0451C109.656 17.0591 108.963 16.8816 108.354 16.5318C107.772 16.1919 107.296 15.6988 106.978 15.1069C106.633 14.4575 106.462 13.7315 106.478 12.9976C106.462 12.2637 106.633 11.5378 106.978 10.8884C107.294 10.2971 107.769 9.80404 108.349 9.46348C108.958 9.11372 109.651 8.93623 110.354 8.95023C111.07 8.93673 111.776 9.11568 112.397 9.46817C112.979 9.80553 113.454 10.2994 113.766 10.8931C114.103 11.5449 114.271 12.2697 114.256 13.0023C114.271 13.735 114.103 14.4598 113.766 15.1116C113.453 15.7035 112.979 16.1957 112.397 16.5318C111.777 16.8818 111.072 17.0591 110.359 17.0451ZM110.359 15.6928C110.8 15.7052 111.236 15.5904 111.613 15.3623C111.968 15.1351 112.249 14.8092 112.421 14.4249C112.622 13.9755 112.72 13.4871 112.708 12.9953C112.721 12.5011 112.623 12.0102 112.421 11.5587C112.248 11.1798 111.967 10.8596 111.613 10.6376C111.235 10.4122 110.8 10.2991 110.359 10.3119C109.929 10.3021 109.506 10.4152 109.138 10.6376C108.784 10.8607 108.502 11.1804 108.326 11.5587C108.119 12.0091 108.019 12.5005 108.033 12.9953C108.02 13.4877 108.12 13.9766 108.326 14.4249C108.5 14.8086 108.783 15.1341 109.138 15.3623C109.504 15.5907 109.928 15.7088 110.359 15.7022V15.6928Z" fill="white"/>
<path d="M118.585 17.0451C118.04 17.0525 117.502 16.9338 117.011 16.6982C116.542 16.4699 116.151 16.1087 115.887 15.66C115.591 15.1189 115.448 14.5083 115.472 13.8929V9.0885H116.99V13.9046C116.98 14.2409 117.046 14.5751 117.185 14.8819C117.304 15.1322 117.501 15.3377 117.746 15.4678C118.021 15.5929 118.32 15.6576 118.623 15.6576C118.925 15.6576 119.224 15.5929 119.499 15.4678C119.746 15.3383 119.942 15.1315 120.058 14.8796C120.194 14.5721 120.259 14.2381 120.249 13.9023V9.0885H121.764V13.8929C121.789 14.5099 121.642 15.1217 121.337 15.66C121.064 16.1112 120.663 16.4723 120.185 16.6982C119.685 16.9336 119.138 17.0523 118.585 17.0451Z" fill="white"/>
<path d="M123.236 16.9115V9.08857H126.158C126.708 9.0687 127.255 9.17958 127.753 9.41199C128.148 9.60269 128.476 9.90628 128.696 10.2838C128.906 10.6674 129.012 11.0986 129.005 11.5353C129.007 11.9515 128.903 12.3613 128.701 12.7259C128.487 13.107 128.168 13.4193 127.782 13.6258C127.281 13.8775 126.723 13.997 126.163 13.9727H124.749V16.9115H123.236ZM124.754 12.754H126.064C126.556 12.754 126.912 12.6415 127.124 12.4188C127.346 12.1745 127.461 11.8525 127.445 11.5236C127.455 11.362 127.431 11.2001 127.376 11.0478C127.321 10.8955 127.235 10.7559 127.124 10.6377C126.912 10.4244 126.556 10.3166 126.064 10.3166H124.737L124.754 12.754Z" fill="white"/>
<path d="M25.6417 10.9305C24.6136 13.6434 23.0036 16.101 20.9238 18.1323C18.844 20.1637 16.3443 21.72 13.5984 22.6931C10.8523 21.72 8.35222 20.1637 6.27203 18.1324C4.19184 16.1011 2.58145 13.6435 1.55283 10.9305L0 12.475V12.4867C1.1159 15.5987 2.91336 18.4251 5.26232 20.7614C7.61129 23.0976 10.453 24.8854 13.5819 25.9953H13.5937C16.7271 24.8857 19.5728 23.0964 21.9245 20.757C24.2762 18.4176 26.0747 15.5869 27.1898 12.4703L25.6417 10.9305Z" fill="#E74848"/>
<path d="M20.0288 15.6671C20.2362 15.4515 20.4365 15.2265 20.632 14.9991C20.427 15.2335 20.2267 15.4515 20.0288 15.6671Z" fill="white"/>
<path d="M20.6226 14.9991C20.8158 14.7647 21.0043 14.5304 21.1857 14.296C21.0043 14.5304 20.8181 14.7647 20.6226 14.9991Z" fill="white"/>
<path d="M23.5636 9.91581C23.2571 10.7818 22.8763 11.62 22.4255 12.4211C22.3524 12.5524 22.277 12.6836 22.1899 12.8125C21.883 13.325 21.5479 13.8203 21.1861 14.296C21.0046 14.5304 20.8161 14.7647 20.6229 14.9991C20.4273 15.2335 20.227 15.4514 20.0197 15.667C18.981 16.7601 17.7946 17.7042 16.4946 18.4723C16.233 18.627 15.9691 18.7723 15.7029 18.9129C15.4342 19.0535 15.1609 19.1848 14.8852 19.3113C14.4658 19.4988 14.0385 19.6699 13.6034 19.8246L13.3889 19.7449L13.1745 19.6652L12.9601 19.5855L12.7244 19.4965L12.5147 19.4051C12.4464 19.377 12.3734 19.3465 12.305 19.3137L12.1047 19.2176L11.8997 19.1215L11.6994 19.0231C11.6311 18.9856 11.5604 18.9528 11.4897 18.9153C11.419 18.8778 11.3601 18.845 11.2942 18.8098L11.0915 18.702L10.8865 18.5848L10.6956 18.4747L10.4812 18.3458L10.3092 18.238L10.1136 18.1114L9.92748 17.9895L9.74368 17.863L9.55753 17.7341L9.36196 17.5911L9.18995 17.4646C9.12397 17.4177 9.0627 17.3661 8.99908 17.3169L8.83178 17.188L8.6527 17.0404L8.48304 16.9021C8.42178 16.8529 8.36287 16.799 8.30396 16.7498L8.14138 16.6092L7.90574 16.4006L7.79971 16.3021C7.58057 16.0982 7.3685 15.885 7.16114 15.6694C7.12344 15.6248 7.08338 15.5827 7.04332 15.5428C7.00326 15.503 6.90666 15.3928 6.83832 15.3085C6.80298 15.271 6.76999 15.2311 6.737 15.1936L6.57206 14.9991L6.44953 14.8514C6.39533 14.7858 6.33878 14.7202 6.28458 14.6522L6.1597 14.4929L6.00653 14.296L5.89107 14.132L5.74498 13.9351L5.62716 13.7664C5.58004 13.7007 5.53291 13.6328 5.48578 13.5625C5.44337 13.5039 5.40567 13.4406 5.36561 13.3797C5.32555 13.3187 5.27843 13.2531 5.23837 13.1875C5.19831 13.1219 5.16297 13.0633 5.12291 13.0023C5.08285 12.9414 5.04044 12.8688 5.00038 12.8031C4.96032 12.7375 4.92969 12.6789 4.89434 12.6203L4.77181 12.4094L4.66578 12.2149C4.62808 12.1446 4.59038 12.079 4.55503 12.011C4.51969 11.943 4.4867 11.8774 4.45371 11.8118C4.42072 11.7462 4.38302 11.6759 4.35003 11.6056C4.31704 11.5352 4.28641 11.4743 4.25578 11.4087L4.1521 11.1931L4.06727 10.9939L3.96359 10.7806C3.93532 10.7126 3.90704 10.64 3.87876 10.5697L3.79158 10.3588C3.76566 10.2861 3.73974 10.2158 3.71146 10.1455C3.68319 10.0752 3.65962 10.0025 3.63135 9.92987V9.91347C4.44891 7.63043 5.76643 5.55667 7.48861 3.84217C9.21079 2.12767 11.2946 0.815307 13.5892 0L14.9465 1.35226C14.4869 1.5153 14.0362 1.70226 13.5963 1.91238C10.2177 3.52291 7.61709 6.39763 6.36234 9.90878C6.40711 10.0306 6.45188 10.1431 6.49901 10.272C7.09055 11.7945 7.99414 13.1779 9.15231 14.3343C10.3105 15.4906 11.6979 16.3946 13.2263 16.9888L13.5916 17.1248L13.6411 17.106C15.2912 16.5155 16.7904 15.5708 18.032 14.3391C19.2737 13.1073 20.2275 11.6188 20.8255 9.97909L20.8467 9.92284C20.3467 8.534 19.6312 7.23158 18.726 6.06292C17.0718 7.00036 15.6245 8.25973 14.4705 9.76582L13.5892 8.0667C14.6438 6.6896 15.9126 5.48864 17.3476 4.5091C17.9504 4.09545 18.5802 3.722 19.2327 3.3912C19.3905 3.53651 19.5484 3.6865 19.7039 3.83883C20.1016 4.23308 20.4783 4.64768 20.8326 5.08094C22.0137 6.52571 22.9374 8.16096 23.5636 9.91581Z" fill="#E74848"/>
</g>
<defs>
<clipPath id="clip0_208_259">
<rect width="129" height="26" fill="white"/>
</clipPath>
</defs>
</svg>
