<svg width="120" height="26" viewBox="0 0 120 26" fill="none" xmlns="http://www.w3.org/2000/svg">
<g clip-path="url(#clip0_176_238)">
<path d="M39.3302 10.3862L37.146 16.6689L34.9728 10.3862H33.3584L36.2168 18.2108H38.0773L40.9335 10.3862H39.3302Z" fill="white"/>
<path d="M43.2422 10.3973L40.3838 18.2108H41.9627L42.5836 16.4411H45.5928L46.2093 18.2108H47.8126L44.9541 10.3973H43.2422ZM42.9961 15.2642L44.1048 12.114L45.187 15.2642H42.9961Z" fill="white"/>
<path d="M50.6929 11.9459C51.0498 11.7184 51.4671 11.6035 51.8904 11.6163C52.3221 11.5953 52.7483 11.7191 53.1012 11.9681C53.4127 12.2121 53.6273 12.5587 53.7066 12.9458H55.3631C55.2642 12.1609 54.8605 11.446 54.2388 10.9549C53.5613 10.4645 52.7378 10.2166 51.9015 10.2514C51.1977 10.2353 50.5031 10.4136 49.8946 10.7668C49.3295 11.1077 48.8758 11.6049 48.5885 12.1981C48.2793 12.8588 48.1275 13.5819 48.145 14.3108C48.127 15.0376 48.2788 15.7586 48.5885 16.4168C48.8762 17.0068 49.3301 17.5004 49.8946 17.837C50.5072 18.1875 51.2044 18.3635 51.9104 18.3458C52.7453 18.3802 53.5678 18.1358 54.2477 17.6512C54.8594 17.186 55.2633 16.4995 55.372 15.7399H53.7155C53.6339 16.111 53.4185 16.4394 53.1101 16.6623C52.7494 16.8996 52.3219 17.0152 51.8904 16.992C51.4679 17.0058 51.0509 16.8933 50.6929 16.669C50.3546 16.4404 50.0915 16.1171 49.9368 15.7399C49.7502 15.287 49.6603 14.8003 49.6729 14.3108C49.6596 13.8184 49.7495 13.3286 49.9368 12.8728C50.094 12.4976 50.3566 12.1758 50.6929 11.9459Z" fill="white"/>
<path d="M58.9158 10.3973L56.0596 18.2108H57.6385L58.2594 16.4411H61.2686L61.8851 18.2108H63.4883L60.6299 10.3973H58.9158ZM58.6674 15.2642L59.7762 12.114L60.8605 15.2642H58.6674Z" fill="white"/>
<path d="M69.6262 15.7862L66.0182 10.3862H64.5059V18.2108H66.0182V12.8241L69.6262 18.2108H71.1385V10.3862H69.6262V15.7862Z" fill="white"/>
<path d="M72.2251 11.6052H74.5114V18.2108H76.0237V11.6052H78.31V10.3862H72.2251V11.6052Z" fill="white"/>
<path d="M85.8832 15.0142H87.8147C87.7719 15.5501 87.5493 16.0559 87.1827 16.4499C86.8279 16.8201 86.3068 17.0052 85.6193 17.0052C85.1902 17.0151 84.7664 16.9089 84.393 16.6977C84.0428 16.4858 83.7664 16.1714 83.6014 15.7973C83.4069 15.3419 83.3131 14.8499 83.3264 14.355C83.3111 13.8599 83.405 13.3675 83.6014 12.9126C83.7732 12.527 84.0556 12.2006 84.413 11.9747C84.8028 11.7414 85.2515 11.6246 85.7058 11.6384C86.1192 11.6252 86.5275 11.732 86.8811 11.9459C87.1802 12.1328 87.4027 12.4198 87.5087 12.7556H89.2007C89.0497 12.0192 88.6281 11.3659 88.0187 10.9239C87.3425 10.4625 86.5356 10.2298 85.7169 10.2602C84.9775 10.2365 84.2458 10.4156 83.6014 10.7779C83.0207 11.1223 82.5506 11.625 82.2465 12.2269C81.918 12.8876 81.7544 13.6177 81.7697 14.355C81.7536 15.0798 81.9109 15.798 82.2287 16.4499C82.5164 17.0307 82.9661 17.5162 83.5238 17.8481C84.1133 18.1885 84.7853 18.3607 85.4663 18.3458C85.807 18.3505 86.1467 18.3073 86.4753 18.2175C86.7521 18.1382 87.0121 18.0093 87.2426 17.837C87.4655 17.6618 87.6587 17.4519 87.8147 17.2154L87.9367 18.2109H89.3271V13.886H85.8832V15.0142Z" fill="white"/>
<path d="M95.2458 14.8217C95.6317 14.6284 95.9513 14.325 96.1639 13.9501C96.3616 13.5917 96.4646 13.189 96.4633 12.7799C96.4677 12.3603 96.3639 11.9466 96.1617 11.5786C95.9469 11.2041 95.6249 10.9022 95.237 10.7115C94.7531 10.4805 94.2208 10.369 93.6847 10.3863H90.7354V18.2108H92.2499V15.1491H93.3587L94.7934 18.2108H96.5209L94.911 14.9589C95.0259 14.9216 95.1378 14.8758 95.2458 14.8217ZM92.2499 11.6494H93.5805C94.0506 11.6494 94.3921 11.7556 94.605 11.968C94.7113 12.084 94.7933 12.2201 94.8458 12.3683C94.8984 12.5166 94.9206 12.6738 94.911 12.8307C94.9185 12.9925 94.8935 13.1541 94.8376 13.306C94.7816 13.458 94.6957 13.5972 94.585 13.7156C94.4489 13.8364 94.2898 13.9286 94.1172 13.9868C93.9446 14.0449 93.7621 14.0678 93.5805 14.0541H92.2499V11.6494Z" fill="white"/>
<path d="M103.448 10.7668C102.829 10.4162 102.126 10.2389 101.415 10.2535C100.715 10.2399 100.025 10.4174 99.4189 10.7668C98.8407 11.1078 98.3675 11.6006 98.0507 12.1914C97.708 12.8406 97.5363 13.5661 97.5517 14.2996C97.5363 15.0325 97.708 15.7572 98.0507 16.4057C98.3668 16.997 98.8402 17.4899 99.4189 17.8303C100.025 18.1805 100.715 18.3587 101.415 18.3458C102.127 18.3597 102.829 18.1816 103.448 17.8303C104.029 17.4936 104.503 16.9997 104.814 16.4057C105.149 15.7547 105.316 15.0311 105.302 14.2996C105.317 13.5675 105.149 12.8431 104.814 12.1914C104.502 11.5979 104.029 11.1042 103.448 10.7668ZM103.468 15.7309C103.299 16.1117 103.022 16.4352 102.672 16.6623C102.297 16.8901 101.863 17.0046 101.424 16.9919C100.998 17.0058 100.578 16.8934 100.217 16.6689C99.8558 16.4444 99.5695 16.1179 99.3945 15.7309C99.1907 15.2818 99.0914 14.7925 99.104 14.2996C99.0898 13.8052 99.1891 13.3141 99.3945 12.8639C99.5676 12.487 99.8464 12.1681 100.197 11.9459C100.564 11.724 100.986 11.6112 101.415 11.6207C101.856 11.607 102.293 11.7199 102.672 11.9459C103.026 12.167 103.306 12.4881 103.477 12.8683C103.68 13.3194 103.778 13.81 103.765 14.3041C103.773 14.7957 103.672 15.283 103.468 15.7309Z" fill="white"/>
<path d="M111.274 15.2045C111.284 15.5405 111.219 15.8745 111.083 16.1822C110.967 16.4341 110.772 16.6409 110.527 16.7707C110.252 16.8946 109.954 16.9587 109.653 16.9587C109.352 16.9587 109.054 16.8946 108.779 16.7707C108.532 16.6412 108.334 16.4345 108.216 16.1822C108.076 15.8757 108.008 15.5412 108.018 15.2045V10.3973H106.506V15.1934C106.481 15.8099 106.625 16.4215 106.921 16.9632C107.183 17.4129 107.574 17.7748 108.043 18.0029C108.532 18.238 109.068 18.3569 109.611 18.3502C110.162 18.3564 110.708 18.2376 111.207 18.0029C111.684 17.7774 112.083 17.4155 112.354 16.9632C112.658 16.4243 112.806 15.8114 112.78 15.1934V10.3973H111.269L111.274 15.2045Z" fill="white"/>
<path d="M119.694 11.583C119.475 11.207 119.149 10.9039 118.758 10.7114C118.26 10.4816 117.714 10.3739 117.166 10.3973H114.241V18.2108H115.756V15.2642H117.166C117.725 15.2879 118.281 15.1692 118.781 14.919C119.166 14.7119 119.484 14.3997 119.699 14.0187C119.899 13.6546 120.002 13.2458 120 12.8307C120.008 12.3955 119.902 11.9657 119.694 11.583ZM118.142 13.7178C117.929 13.942 117.576 14.0541 117.084 14.0541H115.754V11.6207H117.084C117.576 11.6207 117.929 11.7268 118.142 11.9392C118.252 12.0577 118.337 12.1971 118.392 12.3492C118.447 12.5012 118.47 12.6628 118.461 12.8241C118.475 13.1525 118.358 13.473 118.135 13.7156L118.142 13.7178Z" fill="white"/>
<path d="M25.566 10.9305C24.5409 13.6435 22.9356 16.101 20.8619 18.1323C18.7882 20.1636 16.2958 21.7198 13.558 22.6928C10.8206 21.7197 8.32862 20.1634 6.25527 18.1321C4.18193 16.1008 2.57706 13.6433 1.55228 10.9305L0 12.4791C1.11266 15.5914 2.9049 18.4181 5.24705 20.7546C7.5892 23.0911 10.4227 24.879 13.5425 25.989C16.6666 24.8793 19.5038 23.0899 21.8485 20.7505C24.1932 18.411 25.9865 15.5803 27.0983 12.4636L25.566 10.9305Z" fill="#E74848"/>
<path d="M19.958 15.6668C20.1642 15.4456 20.366 15.2244 20.559 15.0032C20.3683 15.2288 20.1665 15.45 19.958 15.6668Z" fill="white"/>
<path d="M20.5635 14.9988C20.7542 14.7775 20.9427 14.5364 21.1245 14.2975C20.9427 14.5364 20.7564 14.7709 20.5635 14.9988Z" fill="white"/>
<path d="M23.5059 9.91509C23.1997 10.7752 22.8206 11.6078 22.3728 12.4038C22.2996 12.5343 22.2242 12.6671 22.151 12.7954C21.8438 13.3121 21.5069 13.8107 21.142 14.2886C20.9602 14.5275 20.7717 14.762 20.581 14.9899C20.3881 15.2111 20.1863 15.4323 19.98 15.6535C18.9406 16.7531 17.7524 17.7024 16.4497 18.4741C16.1903 18.6267 15.9264 18.7727 15.6603 18.9165C15.3919 19.0559 15.1192 19.1886 14.8442 19.3147C14.4273 19.5028 13.9993 19.6731 13.5647 19.828L13.3429 19.7483L13.1212 19.6687L12.9149 19.5868L12.6932 19.4983L12.4847 19.4076L12.263 19.3147L12.0568 19.2174L11.8505 19.1201L11.6643 19.0249C11.5955 18.9895 11.5246 18.9564 11.4558 18.9187L11.2584 18.8037L11.0567 18.6953L10.8659 18.5825C10.8016 18.5471 10.7373 18.5117 10.6752 18.4719L10.4535 18.3436C10.3958 18.306 10.3359 18.2728 10.2805 18.2352L10.0854 18.1091L9.90131 17.9874L9.71726 17.8613L9.53542 17.733L9.34027 17.5892L9.16287 17.4764L8.97438 17.3282L8.80806 17.1999L8.62844 17.0339C8.573 16.9897 8.51535 16.9432 8.46213 16.8968C8.40891 16.8503 8.3446 16.7928 8.28472 16.7442C8.22485 16.6955 8.17606 16.649 8.12063 16.6026L7.89887 16.3946L7.79243 16.2973C7.57068 16.0916 7.36223 15.8792 7.156 15.6624C7.1183 15.6204 7.07838 15.5761 7.03847 15.5363C6.96751 15.4633 6.90098 15.3881 6.83445 15.3151L6.73245 15.1978C6.67257 15.1315 6.6127 15.0629 6.55504 14.9943C6.49739 14.9257 6.47299 14.8947 6.43308 14.8461C6.39316 14.7974 6.3222 14.7156 6.26898 14.6492L6.1448 14.4877C6.09379 14.4258 6.04057 14.3594 5.99179 14.293L5.86982 14.1271C5.82104 14.063 5.77225 13.9966 5.72568 13.9302C5.67911 13.8639 5.64585 13.8174 5.60594 13.7621C5.56602 13.7068 5.5128 13.6294 5.46623 13.5586C5.41966 13.4878 5.3864 13.4369 5.34648 13.3772C5.30657 13.3175 5.26 13.2489 5.22008 13.1825C5.18017 13.1161 5.14469 13.0586 5.10477 12.9989C5.06486 12.9392 5.02272 12.8662 4.98281 12.7976C4.94289 12.729 4.91185 12.6759 4.87636 12.6162L4.7544 12.406L4.65683 12.2136C4.62135 12.145 4.58365 12.0808 4.54817 12.0123C4.51269 11.9437 4.47942 11.8795 4.44616 11.8132C4.4129 11.7468 4.3752 11.676 4.34194 11.6074L4.2488 11.4105C4.21332 11.3375 4.18006 11.2645 4.14679 11.1893C4.11353 11.1141 4.08914 11.0566 4.06031 10.9902L3.96274 10.769C3.93391 10.6982 3.90508 10.6274 3.87847 10.5478L3.79199 10.3266L3.71216 10.1053L3.63232 9.88411V9.86863C4.45141 7.59476 5.76563 5.53032 7.48039 3.8239C9.19515 2.11747 11.2678 0.81151 13.5492 0L14.9041 1.35165C12.9302 2.05756 11.1376 3.19103 9.65528 4.67057C8.17294 6.15011 7.03765 7.93894 6.33107 9.90845C6.37542 10.0301 6.41977 10.1518 6.46634 10.2712C7.05793 11.7948 7.9608 13.1789 9.11756 14.3355C10.2743 15.4921 11.6596 16.396 13.1855 16.9897L13.5492 17.1246L13.6002 17.1047C15.2454 16.5142 16.7401 15.5697 17.9784 14.3383C19.2166 13.1068 20.168 11.6186 20.765 9.97924L20.785 9.92172C20.2886 8.53359 19.577 7.23174 18.6761 6.06364C17.0284 6.99939 15.5864 8.25657 14.4362 9.76023L13.5492 8.06126C14.6024 6.68689 15.8673 5.48775 17.2968 4.50847C17.8975 4.09724 18.5258 3.72767 19.1773 3.40237C19.3369 3.54837 19.4922 3.69659 19.6452 3.84481C20.0413 4.2395 20.4166 4.65448 20.7695 5.08806C21.9508 6.52967 22.8763 8.16221 23.5059 9.91509Z" fill="#E74848"/>
</g>
<defs>
<clipPath id="clip0_176_238">
<rect width="120" height="26" fill="white"/>
</clipPath>
</defs>
</svg>
