<svg width="53" height="23" viewBox="0 0 53 23" fill="none" xmlns="http://www.w3.org/2000/svg">
<path d="M0.632 17V0.199999H3.704V14.6H11.144V17H0.632ZM18.9517 17.288C17.7997 17.288 16.7597 17.024 15.8317 16.496C14.9197 15.968 14.1917 15.24 13.6477 14.312C13.1197 13.368 12.8557 12.28 12.8557 11.048C12.8557 9.816 13.1277 8.736 13.6717 7.808C14.2157 6.864 14.9437 6.128 15.8557 5.6C16.7837 5.072 17.8237 4.808 18.9757 4.808C20.1117 4.808 21.1357 5.072 22.0477 5.6C22.9757 6.128 23.7037 6.864 24.2317 7.808C24.7757 8.736 25.0477 9.816 25.0477 11.048C25.0477 12.28 24.7757 13.368 24.2317 14.312C23.7037 15.24 22.9757 15.968 22.0477 16.496C21.1197 17.024 20.0877 17.288 18.9517 17.288ZM18.9517 14.624C19.7517 14.624 20.4477 14.328 21.0397 13.736C21.6317 13.128 21.9277 12.232 21.9277 11.048C21.9277 9.864 21.6317 8.976 21.0397 8.384C20.4477 7.776 19.7597 7.472 18.9757 7.472C18.1597 7.472 17.4557 7.776 16.8637 8.384C16.2877 8.976 15.9997 9.864 15.9997 11.048C15.9997 12.232 16.2877 13.128 16.8637 13.736C17.4557 14.328 18.1517 14.624 18.9517 14.624ZM32.0844 13.448C31.5084 13.448 30.9724 13.384 30.4764 13.256L29.5884 14.144C29.8604 14.288 30.2284 14.408 30.6924 14.504C31.1564 14.6 31.9084 14.696 32.9484 14.792C34.5324 14.936 35.6844 15.312 36.4044 15.92C37.1244 16.528 37.4844 17.368 37.4844 18.44C37.4844 19.144 37.2924 19.808 36.9084 20.432C36.5244 21.072 35.9324 21.584 35.1324 21.968C34.3324 22.368 33.3084 22.568 32.0604 22.568C30.3644 22.568 28.9964 22.248 27.9564 21.608C26.9164 20.984 26.3964 20.04 26.3964 18.776C26.3964 17.704 26.9164 16.776 27.9564 15.992C27.6364 15.848 27.3564 15.696 27.1164 15.536C26.8924 15.376 26.6924 15.208 26.5164 15.032V14.48L28.6044 12.272C27.6764 11.456 27.2124 10.408 27.2124 9.128C27.2124 8.328 27.4044 7.6 27.7884 6.944C28.1884 6.288 28.7484 5.768 29.4684 5.384C30.1884 5 31.0604 4.808 32.0844 4.808C32.7564 4.808 33.3804 4.904 33.9564 5.096H38.4684V6.968L36.4284 7.112C36.7484 7.72 36.9084 8.392 36.9084 9.128C36.9084 9.928 36.7164 10.656 36.3324 11.312C35.9484 11.968 35.3884 12.488 34.6524 12.872C33.9324 13.256 33.0764 13.448 32.0844 13.448ZM32.0844 11.096C32.7084 11.096 33.2204 10.928 33.6204 10.592C34.0364 10.256 34.2444 9.776 34.2444 9.152C34.2444 8.528 34.0364 8.048 33.6204 7.712C33.2204 7.376 32.7084 7.208 32.0844 7.208C31.4284 7.208 30.9004 7.376 30.5004 7.712C30.1004 8.048 29.9004 8.528 29.9004 9.152C29.9004 9.776 30.1004 10.256 30.5004 10.592C30.9004 10.928 31.4284 11.096 32.0844 11.096ZM29.2044 18.464C29.2044 19.056 29.4764 19.496 30.0204 19.784C30.5804 20.088 31.2604 20.24 32.0604 20.24C32.8284 20.24 33.4524 20.08 33.9324 19.76C34.4124 19.456 34.6524 19.04 34.6524 18.512C34.6524 18.08 34.4924 17.72 34.1724 17.432C33.8684 17.144 33.2524 16.968 32.3244 16.904C31.6684 16.856 31.0604 16.784 30.5004 16.688C30.0364 16.944 29.7004 17.224 29.4924 17.528C29.3004 17.832 29.2044 18.144 29.2044 18.464ZM45.9517 17.288C44.7997 17.288 43.7597 17.024 42.8317 16.496C41.9197 15.968 41.1917 15.24 40.6477 14.312C40.1197 13.368 39.8557 12.28 39.8557 11.048C39.8557 9.816 40.1277 8.736 40.6717 7.808C41.2157 6.864 41.9437 6.128 42.8557 5.6C43.7837 5.072 44.8237 4.808 45.9757 4.808C47.1117 4.808 48.1357 5.072 49.0477 5.6C49.9757 6.128 50.7037 6.864 51.2317 7.808C51.7757 8.736 52.0477 9.816 52.0477 11.048C52.0477 12.28 51.7757 13.368 51.2317 14.312C50.7037 15.24 49.9757 15.968 49.0477 16.496C48.1197 17.024 47.0877 17.288 45.9517 17.288ZM45.9517 14.624C46.7517 14.624 47.4477 14.328 48.0397 13.736C48.6317 13.128 48.9277 12.232 48.9277 11.048C48.9277 9.864 48.6317 8.976 48.0397 8.384C47.4477 7.776 46.7597 7.472 45.9757 7.472C45.1597 7.472 44.4557 7.776 43.8637 8.384C43.2877 8.976 42.9997 9.864 42.9997 11.048C42.9997 12.232 43.2877 13.128 43.8637 13.736C44.4557 14.328 45.1517 14.624 45.9517 14.624Z" fill="white"/>
</svg>
