<svg width="25" height="25" viewBox="0 0 25 25" fill="none" xmlns="http://www.w3.org/2000/svg">
<path d="M24.9983 12.5005C24.9983 18.8137 20.3187 24.0331 14.2394 24.88C13.671 24.9589 13.0895 25 12.4991 25C11.8177 25 11.1486 24.9457 10.497 24.8406C4.54562 23.8824 0 18.7218 0 12.5005C0 5.59682 5.59663 0 12.5 0C19.4034 0 25 5.59682 25 12.5005H24.9983Z" fill="#E74848"/>
<path d="M5.06912 5.51367L10.8339 13.2214L5.0332 19.4882H6.33909L11.4181 14.0018L15.5214 19.4882H19.9646L13.8757 11.347L19.2753 5.51367H17.9694L13.2924 10.5666L9.51314 5.51367H5.06998H5.06912ZM6.98895 6.47538H9.02967L18.043 18.5265H16.0022L6.98895 6.47538Z" fill="white"/>
</svg>
