<svg width="50" height="50" viewBox="0 0 50 50" fill="none" xmlns="http://www.w3.org/2000/svg">
<circle cx="25" cy="25" r="25" fill="#E74848"/>
<path d="M19.4679 18.1011C20.1539 18.1011 20.7859 18.4731 21.1189 19.0729L21.9059 20.4906C22.2263 21.0676 22.2413 21.7655 21.9462 22.3558L20.9446 24.3589C20.9446 24.3589 21.3003 26.1877 22.7891 27.6765C24.2779 29.1653 26.1006 29.5149 26.1006 29.5149L28.103 28.5137C28.6937 28.2183 29.3921 28.2336 29.9692 28.5545L31.3936 29.3464C31.9929 29.6796 32.3645 30.3114 32.3645 30.9971V30.9971C32.3645 33.4368 30.0908 35.1961 27.827 34.2864C25.4204 33.3192 22.5601 31.8669 20.5794 29.8862C18.5986 27.9054 17.1462 25.0448 16.179 22.638C15.2694 20.3745 17.0285 18.1011 19.4679 18.1011V18.1011Z" stroke="#0F0F0F" stroke-width="2" stroke-linejoin="round"/>
<path d="M30.834 16.125L26.6673 20.2917L30.834 24.4583" stroke="#0F0F0F" stroke-width="2" stroke-linecap="round" stroke-linejoin="round"/>
<path d="M35 20.2961H26.6667" stroke="#0F0F0F" stroke-width="2" stroke-linecap="round" stroke-linejoin="round"/>
</svg>
